# xmcd
#
# Track frame offsets: 
#        150
#        17661
#        31833
#        51374
#        76780
#        90114
#        106408
#        122297
#        147599
#        164790
#        183672
#        200431
#        216246
#        236568
#        262189
#        277228
#        298987
#
# Disc length: 4323 seconds
#
# Revision: 3
# Processed by: cddbd v1.5.2PL0 Copyright (c) Steve Scherf et al.
# Submitted via: ExactAudioCopy v1.3
#
DISCID=0110e111
DTITLE=Van Morrison - The Best Of Van Morrison Volume 3
DYEAR=2007
DGENRE=Rock
TTITLE0=Shenandoah (with The Chieftains)
TTITLE1=Precious Time
TTITLE2=Back On Top <ReMix>
TTITLE3=When The Leaves Come Falling Down
TTITLE4=Lost John (with Lonnie Donegan)(LIVE)
TTITLE5=Tupelo Honey (with Bobby Bland)
TTITLE6=Meet Me In The Indian Summer <Orchestral Version> <ReMix>
TTITLE7=Georgia On My Mind
TTITLE8=Hey Mr. DJ
TTITLE9=Steal My Heart Away
TTITLE10=Crazy Love (with Ray Charles)
TTITLE11=Once In A Blue Moon
TTITLE12=Little Village
TTITLE13=Blue And Green
TTITLE14=Sitting On Top Of The World (with Carl Perkins)
TTITLE15=Early In The Morning (with B.B. King)
TTITLE16=Stranded
EXTD=
EXTT0=
EXTT1=
EXTT2=
EXTT3=
EXTT4=
EXTT5=
EXTT6=
EXTT7=
EXTT8=
EXTT9=
EXTT10=
EXTT11=
EXTT12=
EXTT13=
EXTT14=
EXTT15=
EXTT16=
PLAYORDER=
